<svg xmlns="http://www.w3.org/2000/svg" width="427" height="427" viewBox="0 0 427 427"><defs><style>.cls-1{fill:#6F80FB;}.cls-2{fill:#fff;}</style></defs><title>Asset 13</title><g id="Layer_2" data-name="Layer 2"><g id="Layer_1-2" data-name="Layer 1"><circle class="cls-1" cx="213.5" cy="213.5" r="213.5"/><circle class="cls-2" cx="150.52" cy="160.4" r="31.15"/><circle class="cls-2" cx="248.23" cy="145.13" r="45.8"/><path class="cls-2" d="M307.63,189.72l-31.3,22.5V189.73a53.75,53.75,0,0,1-81.62-40.94h-6.65a39.7,39.7,0,0,1-57.69,45.55V265.6a13.94,13.94,0,0,0,13.89,13.89h46.52L161.41,309a10.25,10.25,0,1,0,14.53,14.48L206,293.25l31.55,31.44a10.28,10.28,0,0,0,14.5,0h0a10.28,10.28,0,0,0,0-14.5l-30.78-30.67h41.16a13.94,13.94,0,0,0,13.89-13.89V246.29l31.3,22.5Z"/></g></g></svg>
