<svg xmlns="http://www.w3.org/2000/svg" width="427" height="427" viewBox="0 0 427 427"><defs><style>.cls-1{fill:#6F80FB;}.cls-2{fill:#fff;}</style></defs><title>Asset 9</title><g id="Layer_2" data-name="Layer 2"><g id="Layer_1-2" data-name="Layer 1"><circle class="cls-1" cx="213.5" cy="213.5" r="213.5"/><path class="cls-2" d="M335,185.27v1.21H91.49v-1.21A59.44,59.44,0,0,1,150.75,126h125A59.44,59.44,0,0,1,335,185.27Z"/><path class="cls-2" d="M335,236.17V235H91.49v1.21a59.44,59.44,0,0,0,59.27,59.27h125A59.44,59.44,0,0,0,335,236.17Z"/><rect class="cls-2" x="73.6" y="192.83" width="279.81" height="34.67" rx="17.34" ry="17.34"/><circle class="cls-1" cx="214.05" cy="165.51" r="4.84"/><circle class="cls-1" cx="256.79" cy="165.51" r="4.84"/><circle class="cls-1" cx="169.7" cy="165.51" r="4.84"/><circle class="cls-1" cx="235.83" cy="146.97" r="4.84"/><circle class="cls-1" cx="192.28" cy="146.97" r="4.84"/></g></g></svg>
