<svg xmlns="http://www.w3.org/2000/svg" width="427" height="427" viewBox="0 0 427 427"><defs><style>.cls-1{fill:#6F80FB;}.cls-2{fill:#fff;}.cls-3{fill:none;stroke:#fff;stroke-miterlimit:10;stroke-width:22px;}</style></defs><title>Asset 14</title><g id="Layer_2" data-name="Layer 2"><g id="Layer_1-2" data-name="Layer 1"><circle class="cls-1" cx="213.5" cy="213.5" r="213.5"/><rect class="cls-2" x="93.5" y="151.35" width="240" height="168" rx="22.31" ry="22.31"/><rect class="cls-3" x="154.63" y="107.65" width="117.74" height="103" rx="22.31" ry="22.31"/><path class="cls-1" d="M252.64,226.48H220.95V196.21a7.59,7.59,0,0,0-7.57-7.57h0a7.59,7.59,0,0,0-7.57,7.57v30.27H174.36a7.59,7.59,0,0,0-7.57,7.57h0a7.59,7.59,0,0,0,7.57,7.57h31.45v32.87a7.59,7.59,0,0,0,7.57,7.57h0a7.59,7.59,0,0,0,7.57-7.57V241.62h31.69a7.59,7.59,0,0,0,7.57-7.57h0A7.59,7.59,0,0,0,252.64,226.48Z"/></g></g></svg>
