<svg xmlns="http://www.w3.org/2000/svg" width="427" height="427" viewBox="0 0 427 427"><defs><style>.cls-1{fill:#6F80FB;}.cls-2{fill:#fff;}</style></defs><title>Asset 12</title><g id="Layer_2" data-name="Layer 2"><g id="Layer_1-2" data-name="Layer 1"><circle class="cls-1" cx="213.5" cy="213.5" r="213.5"/><path class="cls-2" d="M222.94,111.64c-5.19-3.1-13.69-3.1-18.89,0L75.6,188.36c-5.19,3.1-4.49,5.64,1.56,5.64H349.84c6.05,0,6.75-2.54,1.56-5.64Z"/><rect class="cls-2" x="201.18" y="199" width="24" height="79"/><rect class="cls-2" x="245.18" y="199" width="24" height="79"/><rect class="cls-2" x="291.18" y="199" width="24" height="79"/><rect class="cls-2" x="156.18" y="199" width="24" height="79"/><rect class="cls-2" x="112.18" y="199" width="24" height="79"/><path class="cls-2" d="M343.83,295.25H86.53A15.49,15.49,0,0,1,101.68,283h227A15.48,15.48,0,0,1,343.83,295.25Z"/><path class="cls-2" d="M353.18,317.5a16.83,16.83,0,0,1-.36,3.5H74.54a16.83,16.83,0,0,1-.36-3.5A17.51,17.51,0,0,1,91.68,300h244A17.51,17.51,0,0,1,353.18,317.5Z"/></g></g></svg>
