<svg xmlns="http://www.w3.org/2000/svg" viewBox="0 0 427 427"><defs><style>.cls-1{fill:red;}.cls-2{fill:white;}</style></defs><title>Asset 1</title><g id="Layer_2" data-name="Layer 2"><g id="Layer_1-2" data-name="Layer 1"><circle class="cls-1" cx="213.5" cy="213.5" r="213.5"/><path class="cls-2" d="M213.5,105.16a86.82,86.82,0,0,0-69.35,139.07q.25.48.57,1l62.61,96.71c3.39,5.24,8.94,5.24,12.34,0l62.61-96.71q.32-.5.57-1A86.82,86.82,0,0,0,213.5,105.16Zm0,139.6a52.21,52.21,0,1,1,52.21-52.21A52.21,52.21,0,0,1,213.5,244.76Z"/><path class="cls-2" d="M242.56,187.73H219V165.26a5.63,5.63,0,0,0-5.62-5.62h0a5.63,5.63,0,0,0-5.62,5.62v22.47H184.44a5.63,5.63,0,0,0-5.62,5.62h0a5.63,5.63,0,0,0,5.62,5.62h23.35v24.4a5.63,5.63,0,0,0,5.62,5.62h0a5.63,5.63,0,0,0,5.62-5.62V199h23.52a5.63,5.63,0,0,0,5.62-5.62h0A5.63,5.63,0,0,0,242.56,187.73Z"/></g></g></svg>
