<svg xmlns="http://www.w3.org/2000/svg" width="427" height="427" viewBox="0 0 427 427"><defs><style>.cls-1{fill:orange;}.cls-2{fill:#fff;}</style></defs><title>Asset 10</title><g id="Layer_2" data-name="Layer 2"><g id="Layer_1-2" data-name="Layer 1"><circle class="cls-1" cx="213.5" cy="213.5" r="213.5"/><path class="cls-2" d="M279,156.45c0,44.73-29.34,81-65.54,81S148,201.18,148,156.45c0-22.08,7.14-42.09,18.75-56.7h93.58C271.89,114.36,279,134.37,279,156.45Z"/><path class="cls-1" d="M269.76,157.27c0,38.41-25.19,69.54-56.26,69.54s-56.26-31.13-56.26-69.54a86.21,86.21,0,0,1,.92-12.6H268.84A86.21,86.21,0,0,1,269.76,157.27Z"/><rect class="cls-2" x="208.71" y="230.26" width="9.58" height="96.99"/><rect class="cls-2" x="164.41" y="317.67" width="96.99" height="9.58" rx="4" ry="4"/></g></g></svg>