<svg xmlns="http://www.w3.org/2000/svg" width="427" height="427" viewBox="0 0 427 427"><defs><style>.cls-1{fill:orange;}.cls-2{fill:#fcfcfc;}</style></defs><title>Asset 15</title><g id="Layer_2" data-name="Layer 2"><g id="Layer_1-2" data-name="Layer 1"><circle class="cls-1" cx="213.5" cy="213.5" r="213.5"/><path class="cls-2" d="M230.19,264.68V162.32a45.71,45.71,0,0,0,3.37-83.63v33.82a17.46,17.46,0,0,1-17.41,17.41h-5.3a17.46,17.46,0,0,1-17.41-17.41V78.69a45.71,45.71,0,0,0,3.37,83.63V264.68a45.71,45.71,0,0,0-3.37,83.63V314.49a17.46,17.46,0,0,1,17.41-17.41h5.3a17.46,17.46,0,0,1,17.41,17.41v33.82a45.71,45.71,0,0,0-3.37-83.63Z"/></g></g></svg>