<svg xmlns="http://www.w3.org/2000/svg" width="427" height="427" viewBox="0 0 427 427"><defs><style>.cls-1{fill:orange;}.cls-2{fill:#fff;}</style></defs><title>Asset 11</title><g id="Layer_2" data-name="Layer 2"><g id="Layer_1-2" data-name="Layer 1"><circle class="cls-1" cx="213.5" cy="213.5" r="213.5"/><path class="cls-2" d="M309.07,259.12a9.3,9.3,0,0,1-2.74,6.6c-1.69,1.69-1.71,1.69-1.71,1.69a57.14,57.14,0,0,1-9.89,1H159a28,28,0,0,1-9.56-2s-4.77-2.13-4.77-7.29V259c0-.09-.38-2.38-.86-5.08L121.64,127.87a7,7,0,0,0-5.84-5.45l-15.23-1.62a28,28,0,0,1-9.3-3s-4.52-2.63-4-7.76a9.35,9.35,0,0,1,9.27-8.35h.33l5.64.58,22.38,2.37a29.19,29.19,0,0,1,9.16,2.82c2.3,1.26,4.54,9.2,5,11.86a7.74,7.74,0,0,0,5.76,5.77l190,36.41a3.37,3.37,0,0,1,2.44,5.29L298.1,235.66a9.52,9.52,0,0,1-7.47,4.35H165.28a4,4,0,0,0-4.14,4.89,6.17,6.17,0,0,0,5.86,4.89H294.74a28,28,0,0,1,9.56,2S309.07,254,309.07,259.12Z"/><circle class="cls-2" cx="175.74" cy="300.45" r="24.89"/><circle class="cls-2" cx="267.29" cy="300.45" r="24.89"/></g></g></svg>