<svg xmlns="http://www.w3.org/2000/svg" viewBox="0 0 427 427"><defs><style>.cls-1{fill:orange;}.cls-2{fill:#fff;}</style></defs><title>Asset 5</title><g id="Layer_2" data-name="Layer 2"><g id="Layer_1-2" data-name="Layer 1"><circle class="cls-1" cx="213.5" cy="213.5" r="213.5"/><path class="cls-2" d="M258.11,392.5c-2.75,0-3.82-1.92-2.39-4.26,0,0,10.64-17.38,10.64-30.83a53.09,53.09,0,0,0-106.19,0c0,13.45,10.64,30.83,10.64,30.83,1.44,2.35.36,4.26-2.39,4.26h-37a3.48,3.48,0,0,1-3.52-4.78l34-110.13a7.22,7.22,0,0,1,6.48-4.78H258.6a7.22,7.22,0,0,1,6.48,4.78l34,110.13a3.48,3.48,0,0,1-3.52,4.78Z"/><path class="cls-2" d="M263.22,268.92H241.17l-10.55-54.44H196.39l-10.55,54.44H163.78l30.82-159H193c-4.22,0-7.65-4.59-7.65-10.25V87c0-4.59,2.25-8.47,5.35-9.78.26-5.34,3.58-9.57,7.63-9.57h10.27V34.5h9.75V67.64h10.27c4,0,7.37,4.23,7.63,9.57,3.11,1.31,5.35,5.19,5.35,9.78V99.62c0,5.66-3.43,10.25-7.65,10.25H232.4Z"/></g></g></svg>