<svg xmlns="http://www.w3.org/2000/svg" width="293.52" height="605.5" viewBox="0 0 293.52 605.5"><defs><style>.cls-1,.cls-3{fill:#50be50;}.cls-2{fill:none;}.cls-2,.cls-3{stroke:#fff;stroke-miterlimit:10;stroke-width:3px;}</style></defs><title>Asset 18</title><g id="Layer_2" data-name="Layer 2"><g id="Layer_1-2" data-name="Layer 1"><path class="cls-1" d="M218.43,604c-2.75,0-3.82-1.92-2.39-4.26,0,0,19.7-32.16,19.7-54.8a89.35,89.35,0,1,0-178.71,0c0,22.64,19.7,54.8,19.7,54.8,1.44,2.35.36,4.26-2.39,4.26H5.24a3.48,3.48,0,0,1-3.52-4.78L61,407.35a7.22,7.22,0,0,1,6.48-4.78H226.07a7.22,7.22,0,0,1,6.48,4.78l59.26,191.87a3.48,3.48,0,0,1-3.52,4.78Z"/><path class="cls-2" d="M218.43,604c-2.75,0-3.82-1.92-2.39-4.26,0,0,19.7-32.16,19.7-54.8a89.35,89.35,0,1,0-178.71,0c0,22.64,19.7,54.8,19.7,54.8,1.44,2.35.36,4.26-2.39,4.26H5.24a3.48,3.48,0,0,1-3.52-4.78L61,407.35a7.22,7.22,0,0,1,6.48-4.78H226.07a7.22,7.22,0,0,1,6.48,4.78l59.26,191.87a3.48,3.48,0,0,1-3.52,4.78Z"/><path class="cls-3" d="M230.44,396H193.32l-17.76-91.62H118L100.22,396H63.09L115,128.34h-2.65c-7.11,0-12.88-7.73-12.88-17.25V89.83c0-7.72,3.78-14.26,9-16.46.44-9,6-16.11,12.84-16.11h17.28V1.5H155V57.27h17.28c6.81,0,12.4,7.12,12.84,16.11,5.23,2.2,9,8.74,9,16.46v21.26c0,9.52-5.77,17.25-12.88,17.25h-2.64Z"/></g></g></svg>
